if (_typeface_js && _typeface_js.loadFace) _typeface_js.loadFace({"glyphs":{"S":{"x_min":105.5625,"x_max":863.953125,"ha":772,"o":"m 765 273 q 701 118 745 176 q 600 30 657 60 q 479 -7 543 1 q 355 -17 415 -17 q 236 -2 284 -17 q 159 37 188 12 q 118 99 130 63 q 105 176 105 134 q 111 241 105 208 q 126 310 116 273 l 336 310 q 327 261 330 284 q 323 216 323 237 q 342 155 323 178 q 418 133 361 133 q 504 164 470 133 q 548 247 537 195 q 550 258 550 253 q 551 269 551 263 q 527 335 551 306 q 466 390 502 363 q 386 443 429 416 q 306 502 343 469 q 245 578 269 536 q 220 679 220 620 q 227 737 220 703 q 266 847 240 796 q 338 937 293 899 q 452 997 384 975 q 616 1020 520 1020 q 801 974 738 1020 q 863 833 863 929 q 845 718 863 781 l 641 718 q 650 789 650 753 q 634 847 650 824 q 576 870 619 870 q 491 842 525 870 q 445 762 456 815 q 443 750 444 756 q 443 737 443 744 q 467 671 443 699 q 528 619 491 643 q 607 569 565 594 q 686 512 650 544 q 747 439 723 480 q 772 337 772 397 q 770 306 772 322 q 765 273 768 291 "},"/":{"x_min":-70.84375,"x_max":637.546875,"ha":386,"o":"m -70 -133 l 495 1003 l 637 1003 l 70 -133 l -70 -133 "},"K":{"x_min":75,"x_max":972.296875,"ha":772,"o":"m 741 1003 l 972 1003 l 597 552 l 763 0 l 527 0 l 393 514 l 390 514 l 284 0 l 75 0 l 283 1003 l 493 1003 l 402 573 l 405 573 l 741 1003 "},"7":{"x_min":109.734375,"x_max":765.34375,"ha":617,"o":"m 726 785 l 327 0 l 109 0 l 544 820 l 212 820 l 244 970 l 765 970 l 726 785 "},"d":{"x_min":106.953125,"x_max":822.28125,"ha":695,"o":"m 361 107 q 404 121 386 107 q 438 165 423 136 q 465 242 452 195 q 491 356 477 290 q 510 448 502 406 q 518 521 518 489 q 505 575 518 556 q 461 594 493 594 q 409 576 429 594 q 374 528 388 559 q 350 453 359 496 q 329 356 340 409 q 311 256 318 298 q 304 184 304 215 q 361 107 304 107 m 427 0 l 443 78 l 440 77 q 357 6 402 26 q 255 -14 312 -14 q 182 0 211 -14 q 137 34 154 12 q 113 87 120 56 q 106 151 106 117 q 117 255 106 201 q 137 355 127 309 q 163 471 148 408 q 207 588 179 534 q 283 678 236 642 q 404 715 330 715 q 491 696 456 715 q 547 634 525 678 l 550 634 l 626 1003 l 822 1003 l 613 0 l 427 0 "},",":{"x_min":5.5625,"x_max":311.140625,"ha":308,"o":"m 129 183 l 311 183 l 138 -135 l 5 -135 l 129 183 "},"Y":{"x_min":218.078125,"x_max":970.90625,"ha":772,"o":"m 343 347 l 218 1003 l 447 1003 l 508 579 l 757 1003 l 970 1003 l 552 347 l 481 0 l 272 0 l 343 347 "},"E":{"x_min":87.5,"x_max":843.125,"ha":695,"o":"m 87 0 l 295 1003 l 843 1003 l 811 849 l 473 849 l 422 601 l 733 601 l 700 447 l 388 447 l 329 154 l 677 154 l 645 0 l 87 0 "},"y":{"x_min":72.234375,"x_max":748.671875,"ha":617,"o":"m 201 -5 l 156 701 l 351 701 l 350 208 l 352 208 l 559 701 l 748 701 l 277 -265 l 72 -265 l 201 -5 "},"\"":{"x_min":154.171875,"x_max":650.046875,"ha":463,"o":"m 154 643 l 229 1003 l 395 1003 l 320 643 l 154 643 m 408 643 l 483 1003 l 650 1003 l 575 643 l 408 643 "},"‹":{"x_min":87.5,"x_max":431.984375,"ha":308,"o":"m 87 377 l 270 645 l 431 645 l 254 377 l 316 104 l 156 104 l 87 377 "},"˙":{"x_min":284.75,"x_max":470.875,"ha":386,"o":"m 470 970 l 438 820 l 284 820 l 316 970 l 470 970 "},"„":{"x_min":37.5,"x_max":576.4375,"ha":617,"o":"m 390 139 l 576 139 l 418 -135 l 284 -135 l 390 139 m 143 139 l 329 139 l 170 -135 l 37 -135 l 143 139 "},"g":{"x_min":52.78125,"x_max":758.390625,"ha":695,"o":"m 320 329 q 308 272 315 305 q 301 208 301 239 q 314 153 301 176 q 363 131 327 131 q 409 144 390 131 q 442 186 427 158 q 468 255 456 214 q 490 352 479 297 q 508 447 501 405 q 515 519 515 488 q 502 574 515 555 q 461 594 490 594 q 414 582 433 594 q 380 542 395 571 q 351 460 365 512 q 320 329 337 409 m 758 701 l 607 -28 q 598 -63 604 -41 q 580 -112 593 -85 q 546 -167 568 -139 q 490 -217 525 -195 q 406 -254 455 -239 q 290 -269 356 -269 q 197 -262 241 -269 q 122 -238 154 -256 q 71 -190 90 -220 q 52 -112 52 -160 q 54 -88 52 -101 q 58 -61 55 -74 l 250 -61 q 245 -99 245 -81 q 252 -131 245 -121 q 312 -159 265 -159 q 372 -127 348 -159 q 408 -42 397 -95 l 436 92 l 433 92 q 359 30 402 51 q 268 10 316 10 q 188 22 219 10 q 138 55 156 34 q 113 105 120 76 q 105 168 105 134 q 115 265 105 214 q 136 365 125 316 q 165 485 148 423 q 211 597 181 547 q 291 681 241 648 q 416 715 340 715 q 505 691 469 715 q 552 619 541 667 l 555 619 l 572 701 l 758 701 "},"–":{"x_min":65.28125,"x_max":783.390625,"ha":695,"o":"m 759 319 l 65 319 l 88 429 l 783 429 l 759 319 "},"ƒ":{"x_min":-47.21875,"x_max":795.890625,"ha":617,"o":"m 220 508 l 266 629 l 359 629 q 407 761 384 697 q 467 874 430 824 q 561 952 504 923 q 713 982 619 982 q 795 978 750 982 l 738 830 q 701 840 722 840 q 643 815 665 840 q 606 756 620 790 q 581 685 591 722 q 559 629 570 649 l 672 629 l 627 508 l 516 508 l 331 -5 q 275 -114 308 -70 q 204 -184 243 -158 q 122 -220 166 -209 q 34 -232 79 -232 q -11 -231 8 -232 q -47 -226 -31 -230 l 4 -85 q 25 -90 12 -90 q 65 -80 48 -90 q 95 -56 83 -71 q 118 -22 108 -41 q 134 16 127 -3 l 312 508 l 220 508 "},"e":{"x_min":111.125,"x_max":729.21875,"ha":695,"o":"m 526 429 q 534 472 530 449 q 538 517 538 495 q 525 571 538 549 q 469 594 511 594 q 414 576 436 594 q 379 533 393 559 q 358 479 365 508 q 347 429 351 451 l 526 429 m 323 319 q 312 259 318 291 q 306 198 306 227 q 320 136 306 162 q 369 111 333 111 q 414 122 395 111 q 445 151 433 133 q 466 191 458 169 q 479 236 475 213 l 677 235 q 565 54 647 117 q 468 4 523 22 q 343 -14 412 -14 q 231 0 276 -14 q 160 39 187 13 q 122 101 133 65 q 111 184 111 138 q 117 267 111 223 q 134 359 123 310 q 172 496 150 431 q 234 609 194 560 q 336 686 273 658 q 495 715 398 715 q 606 700 562 715 q 678 660 651 685 q 717 597 705 634 q 729 516 729 560 q 720 423 729 473 q 698 319 712 374 l 323 319 "},"J":{"x_min":62.5,"x_max":825.0625,"ha":695,"o":"m 825 1003 l 663 233 q 616 120 650 167 q 535 42 581 73 q 433 -2 488 12 q 322 -17 377 -17 q 195 -5 245 -17 q 115 26 145 5 q 74 78 86 46 q 62 152 62 110 q 70 235 62 189 q 88 333 77 280 l 302 333 q 288 269 295 303 q 280 206 280 235 q 295 153 280 174 q 352 133 309 133 q 416 160 388 133 q 451 219 444 187 l 615 1003 l 825 1003 "},"|":{"x_min":23.609375,"x_max":465.3125,"ha":347,"o":"m 311 1042 l 465 1042 l 177 -347 l 23 -347 l 311 1042 "},"˘":{"x_min":175.015625,"x_max":625.046875,"ha":386,"o":"m 256 1003 l 256 1000 q 293 921 256 943 q 383 900 329 900 q 479 923 437 900 q 545 1003 522 947 l 625 1003 q 520 852 594 904 q 351 800 447 800 q 220 841 266 800 q 175 959 175 882 q 175 980 175 971 q 177 1003 175 991 l 256 1003 "},"^":{"x_min":81.953125,"x_max":768.109375,"ha":695,"o":"m 81 381 l 458 970 l 638 970 l 768 381 l 593 381 l 512 796 l 256 381 l 81 381 "},"q":{"x_min":109.734375,"x_max":761.171875,"ha":695,"o":"m 363 107 q 407 121 388 107 q 441 165 426 136 q 468 242 455 195 q 494 356 480 290 q 513 448 505 406 q 520 521 520 489 q 508 575 520 556 q 463 594 495 594 q 411 576 431 594 q 377 528 391 559 q 352 453 362 496 q 331 356 343 409 q 313 256 320 298 q 306 184 306 215 q 363 107 306 107 m 552 -301 l 356 -301 l 433 67 l 430 66 q 349 4 391 22 q 254 -14 306 -14 q 183 0 211 -14 q 138 33 155 12 q 115 85 122 55 q 109 148 109 115 q 118 249 109 197 q 137 345 127 301 q 164 464 148 399 q 209 584 180 528 q 286 677 238 640 q 411 715 334 715 q 504 694 468 715 q 556 623 540 674 l 559 623 l 575 701 l 761 701 l 552 -301 "},"b":{"x_min":77.78125,"x_max":729.21875,"ha":695,"o":"m 375 107 q 420 121 401 107 q 455 165 440 136 q 483 242 470 195 q 509 356 495 290 q 527 446 520 405 q 534 520 534 488 q 521 575 534 556 q 475 594 508 594 q 425 576 444 594 q 391 528 405 559 q 368 453 377 496 q 347 356 358 409 q 329 255 336 298 q 322 181 322 212 q 375 107 322 107 m 286 1003 l 481 1003 l 405 634 l 408 634 q 489 696 447 678 q 584 715 531 715 q 655 701 627 715 q 700 667 683 688 q 722 615 716 645 q 729 552 729 585 q 720 451 729 503 q 701 355 711 399 q 674 236 690 301 q 629 116 658 172 q 552 23 600 60 q 427 -14 504 -14 q 334 6 370 -14 q 281 78 298 26 l 279 77 l 263 0 l 77 0 l 286 1003 "},"D":{"x_min":91.671875,"x_max":905.625,"ha":849,"o":"m 333 154 l 434 154 q 516 172 481 154 q 575 233 550 191 q 620 340 600 274 q 659 501 640 406 q 682 620 672 564 q 693 722 693 676 q 670 814 693 780 q 586 849 647 849 l 477 849 l 333 154 m 300 1003 l 650 1003 q 770 987 720 1003 q 849 939 819 971 q 892 862 879 908 q 905 757 905 816 q 896 641 905 704 q 872 507 887 579 q 853 416 863 468 q 824 307 843 363 q 775 195 805 250 q 699 97 745 140 q 587 27 652 54 q 433 0 522 0 l 91 0 l 300 1003 "},"z":{"x_min":31.953125,"x_max":648.65625,"ha":540,"o":"m 620 562 l 250 125 l 533 125 l 508 0 l 31 0 l 59 138 l 426 576 l 161 576 l 186 701 l 648 701 l 620 562 "},"ˆ":{"x_min":133.34375,"x_max":584.765625,"ha":386,"o":"m 383 927 l 259 804 l 133 804 l 322 1003 l 476 1003 l 584 804 l 455 804 l 383 927 "},"w":{"x_min":159.734375,"x_max":1209.8125,"ha":1081,"o":"m 159 701 l 354 701 l 340 174 l 343 173 l 587 701 l 790 701 l 804 174 l 807 173 l 1022 701 l 1209 701 l 875 0 l 669 0 l 641 478 l 638 478 l 398 0 l 190 0 l 159 701 "},"$":{"x_min":56.953125,"x_max":744.5,"ha":617,"o":"m 451 837 q 400 806 419 827 q 372 743 380 784 q 370 729 370 736 q 369 716 369 723 q 406 626 369 663 l 451 837 m 363 131 q 422 162 398 138 q 458 234 447 186 q 462 266 462 251 q 448 320 462 298 q 412 362 434 343 l 363 131 m 361 401 q 295 448 329 423 q 234 505 262 473 q 188 577 206 537 q 170 668 170 616 q 172 698 170 683 q 177 730 175 713 q 218 836 190 791 q 287 912 247 882 q 377 959 327 943 q 480 982 426 976 l 504 1089 l 563 1089 l 540 981 q 697 937 651 979 q 744 813 744 895 q 741 760 744 788 q 730 701 737 732 l 547 701 q 554 733 551 716 q 556 765 556 750 q 547 813 556 793 q 511 837 537 833 l 458 587 q 525 541 490 565 q 591 487 561 518 q 641 416 622 456 q 661 320 661 376 q 659 288 661 305 q 654 254 658 272 q 607 131 638 180 q 534 51 576 81 q 441 6 491 20 q 334 -12 390 -8 l 309 -132 l 250 -132 l 275 -12 q 170 0 212 -12 q 103 34 129 12 q 67 89 77 56 q 56 162 56 122 q 61 224 56 191 q 73 293 66 256 l 265 293 q 256 248 261 270 q 252 205 252 226 q 263 157 252 177 q 304 131 273 137 l 361 401 "},"™":{"x_min":191.6875,"x_max":1347.328125,"ha":1195,"o":"m 652 1003 l 632 903 l 477 903 l 373 401 l 240 401 l 344 903 l 191 903 l 212 1003 l 652 1003 m 1222 401 l 1088 401 l 1184 865 l 1182 865 l 962 401 l 832 401 l 809 865 l 807 865 l 711 401 l 577 401 l 702 1003 l 923 1003 l 938 592 l 941 592 l 1134 1003 l 1347 1003 l 1222 401 "},"\\":{"x_min":93.0625,"x_max":461.140625,"ha":347,"o":"m 241 1003 l 461 0 l 312 0 l 93 1003 l 241 1003 "},"’":{"x_min":187.515625,"x_max":479.203125,"ha":308,"o":"m 293 1003 l 479 1003 l 320 729 l 187 729 l 293 1003 "},"~":{"x_min":98.625,"x_max":740.34375,"ha":695,"o":"m 740 392 q 695 336 718 365 q 646 283 672 307 q 591 245 620 260 q 527 231 562 231 q 461 245 495 231 q 393 276 426 259 q 333 307 361 293 q 288 322 305 322 q 249 310 268 322 q 215 283 230 299 q 185 246 200 266 q 158 208 170 226 l 98 310 q 144 370 119 339 q 197 426 169 401 q 256 467 225 451 q 320 483 287 483 q 388 468 354 483 q 453 437 422 454 q 511 406 484 420 q 561 392 538 392 q 597 402 580 392 q 628 427 613 412 q 657 460 643 443 q 683 494 670 478 l 740 392 "},"-":{"x_min":123.625,"x_max":493.09375,"ha":463,"o":"m 493 446 l 463 304 l 123 304 l 152 446 l 493 446 "},"Q":{"x_min":143.0625,"x_max":912.578125,"ha":849,"o":"m 451 140 q 526 161 495 140 q 580 226 556 183 q 622 338 604 270 q 661 501 641 406 q 688 646 677 584 q 698 753 698 708 q 677 841 698 812 q 604 870 655 870 q 529 848 559 870 q 475 782 498 826 q 432 667 451 737 q 394 501 413 597 q 367 360 377 420 q 356 255 356 299 q 378 168 356 197 q 451 140 400 140 m 843 0 l 547 0 q 517 -1 533 0 q 486 -4 501 -2 q 454 -8 469 -7 q 423 -10 438 -10 q 290 3 344 -10 q 204 46 237 17 q 156 119 170 76 q 143 223 143 163 q 153 348 143 279 q 181 501 163 418 q 227 694 202 601 q 298 860 251 787 q 425 976 345 932 q 634 1020 505 1020 q 770 1001 716 1020 q 856 951 825 983 q 900 874 887 918 q 912 776 912 829 q 900 644 912 714 q 873 501 888 575 q 836 361 857 420 q 792 256 816 301 q 738 180 768 212 q 672 121 708 148 l 673 119 q 702 128 686 121 q 735 140 719 134 q 765 149 751 145 q 787 154 779 154 l 875 154 l 843 0 "},"M":{"x_min":83.34375,"x_max":1282.046875,"ha":1157,"o":"m 83 0 l 291 1003 l 629 1003 l 644 321 l 647 320 l 955 1003 l 1282 1003 l 1073 0 l 869 0 l 1029 773 l 1026 773 l 673 0 l 473 0 l 450 773 l 447 773 l 287 0 l 83 0 "},"C":{"x_min":141.671875,"x_max":875.0625,"ha":772,"o":"m 419 -17 q 284 1 337 -17 q 198 51 230 19 q 154 128 166 83 q 141 226 141 173 q 154 359 141 288 q 181 501 166 429 q 227 694 202 601 q 298 860 251 787 q 425 976 345 932 q 634 1020 505 1020 q 818 967 761 1020 q 875 815 875 915 q 870 755 875 788 q 857 686 865 722 l 651 686 q 665 793 665 750 q 650 851 665 833 q 604 870 636 870 q 529 848 559 870 q 475 782 498 826 q 432 667 451 737 q 394 501 413 597 q 366 355 376 418 q 356 248 356 292 q 377 160 356 188 q 450 133 398 133 q 509 153 486 133 q 548 205 533 174 q 572 272 563 236 q 588 338 581 308 l 795 338 q 741 169 775 237 q 660 59 707 101 q 553 0 613 17 q 419 -17 493 -17 "},"[":{"x_min":25,"x_max":572.265625,"ha":386,"o":"m 277 1049 l 572 1049 l 547 928 l 406 928 l 204 -47 l 344 -47 l 319 -168 l 25 -168 l 277 1049 "},"L":{"x_min":88.890625,"x_max":645.890625,"ha":617,"o":"m 88 0 l 297 1003 l 506 1003 l 331 167 l 645 167 l 612 0 l 88 0 "},"!":{"x_min":147.234375,"x_max":536.15625,"ha":463,"o":"m 347 167 l 313 0 l 147 0 l 180 167 l 347 167 m 352 268 l 219 268 l 341 1003 l 536 1003 l 352 268 "}," ":{"x_min":0,"x_max":0,"ha":308},"{":{"x_min":36.109375,"x_max":550.046875,"ha":381,"o":"m 248 868 q 312 1004 268 960 q 447 1049 356 1049 l 550 1049 l 527 939 q 469 925 493 939 q 429 891 445 912 q 402 843 412 870 q 386 786 391 815 l 354 630 q 308 513 338 556 q 204 455 277 470 l 202 452 q 270 416 251 445 q 288 347 288 387 q 285 307 288 327 q 277 265 281 286 l 241 93 q 236 64 238 78 q 234 36 234 51 q 252 -29 234 -1 q 320 -58 270 -58 l 297 -168 l 206 -168 q 96 -140 127 -168 q 65 -54 65 -112 q 76 37 65 -18 l 122 254 q 126 281 125 268 q 127 305 127 294 q 107 369 127 345 q 36 393 87 393 l 61 514 q 118 525 94 514 q 160 557 143 537 q 188 602 177 577 q 204 654 198 627 l 248 868 "},"X":{"x_min":4.171875,"x_max":970.90625,"ha":772,"o":"m 230 1003 l 469 1003 l 543 673 l 752 1003 l 970 1003 l 616 507 l 766 0 l 529 0 l 445 345 l 220 0 l 4 0 l 372 525 l 230 1003 "},"P":{"x_min":88.890625,"x_max":890.34375,"ha":772,"o":"m 415 562 l 531 562 q 577 573 555 562 q 616 604 598 585 q 647 647 634 623 q 665 697 659 672 q 672 758 672 731 q 652 823 672 798 q 580 849 633 849 l 475 849 l 415 562 m 297 1003 l 675 1003 q 840 950 790 1003 q 890 805 890 898 q 879 702 890 762 q 850 608 870 659 q 792 512 830 556 q 692 437 754 467 q 538 408 630 408 l 383 408 l 298 0 l 88 0 l 297 1003 "},"%":{"x_min":177.796875,"x_max":1101.484375,"ha":1081,"o":"m 361 567 q 398 575 383 567 q 425 601 413 583 q 444 649 436 619 q 462 722 452 679 q 469 757 465 737 q 473 797 473 778 q 463 841 473 822 q 422 860 452 860 q 378 845 395 860 q 350 809 361 830 q 335 764 340 787 q 326 722 330 740 q 314 662 319 687 q 309 618 309 637 q 361 567 309 567 m 858 110 q 895 118 880 110 q 922 144 911 126 q 941 192 933 162 q 958 265 950 222 q 965 303 961 282 q 969 343 969 323 q 959 385 969 368 q 919 403 948 403 q 875 388 893 403 q 847 352 858 373 q 832 307 837 330 q 822 265 826 283 q 811 205 815 230 q 807 162 807 180 q 818 122 807 135 q 858 110 830 110 m 377 -29 l 275 -29 l 891 988 l 994 988 l 377 -29 m 338 457 q 213 493 250 457 q 177 601 177 530 q 190 707 177 646 q 219 809 201 761 q 266 892 237 857 q 339 949 295 928 q 445 970 383 970 q 570 928 536 970 q 604 819 604 886 q 600 765 604 793 q 590 707 597 737 q 559 598 577 646 q 510 520 540 551 q 438 472 480 488 q 338 457 397 457 m 836 0 q 711 36 748 0 q 673 143 673 72 q 677 193 673 166 q 687 250 680 219 q 716 352 698 304 q 762 435 733 400 q 835 492 791 471 q 941 513 879 513 q 1067 470 1033 513 q 1101 361 1101 428 q 1098 308 1101 336 q 1087 250 1094 280 q 1055 141 1075 189 q 1007 63 1036 94 q 936 15 977 31 q 836 0 894 0 "},"#":{"x_min":52.78125,"x_max":763.953125,"ha":617,"o":"m 323 410 l 443 410 l 493 559 l 373 559 l 323 410 m 156 268 l 52 268 l 81 410 l 204 410 l 254 559 l 152 559 l 181 701 l 301 701 l 393 970 l 512 970 l 420 701 l 540 701 l 632 970 l 751 970 l 659 701 l 763 701 l 734 559 l 612 559 l 562 410 l 663 410 l 634 268 l 515 268 l 425 0 l 305 0 l 395 268 l 276 268 l 186 0 l 66 0 l 156 268 "},"_":{"x_min":-34.71875,"x_max":672.28125,"ha":695,"o":"m -34 -173 l -20 -104 l 672 -104 l 658 -173 l -34 -173 "},"+":{"x_min":90.28125,"x_max":748.671875,"ha":695,"o":"m 415 701 l 569 701 l 513 428 l 748 428 l 715 274 l 480 274 l 425 0 l 270 0 l 326 274 l 90 274 l 123 428 l 359 428 l 415 701 "},"‚":{"x_min":6.9375,"x_max":298.640625,"ha":308,"o":"m 112 139 l 298 139 l 140 -135 l 6 -135 l 112 139 "},")":{"x_min":47.21875,"x_max":448.640625,"ha":386,"o":"m 47 -168 q 106 -33 76 -104 q 166 112 137 36 q 220 268 195 189 q 262 430 245 348 q 293 655 287 551 q 300 853 300 758 l 300 1001 l 300 1049 l 409 1049 q 435 846 422 950 q 448 635 448 741 q 444 531 448 582 q 429 429 440 480 q 380 268 412 351 q 309 105 348 184 q 229 -44 270 26 q 156 -168 188 -115 l 47 -168 "},"'":{"x_min":223.625,"x_max":465.3125,"ha":347,"o":"m 223 643 l 298 1003 l 465 1003 l 390 643 l 223 643 "},"}":{"x_min":18.0625,"x_max":537.546875,"ha":381,"o":"m 452 654 q 448 630 450 641 q 447 607 447 618 q 466 541 447 568 q 537 514 486 514 l 512 393 q 415 353 447 393 q 370 254 383 313 l 325 37 q 299 -52 313 -13 q 259 -117 284 -91 q 197 -155 234 -143 q 108 -168 161 -168 l 18 -168 l 41 -58 q 100 -44 76 -58 q 140 -8 125 -30 q 166 39 156 12 q 181 93 176 66 l 218 265 q 235 329 225 298 q 263 386 245 361 q 306 429 280 412 q 370 452 333 447 l 372 455 q 304 491 323 466 q 284 557 284 516 q 287 591 284 572 q 294 630 290 609 l 326 786 q 331 818 329 802 q 334 850 334 834 q 316 913 334 887 q 248 939 297 939 l 270 1049 l 373 1049 q 475 1021 444 1049 q 505 939 505 994 q 497 868 505 907 l 452 654 "},"‰":{"x_min":183.34375,"x_max":1351.5,"ha":1389,"o":"m 383 602 q 418 612 404 602 q 441 644 431 622 q 459 699 451 665 q 477 780 468 733 q 484 814 480 795 q 488 851 488 833 q 479 888 488 873 q 445 904 470 904 q 407 890 422 904 q 384 858 393 877 q 370 818 375 838 q 361 780 365 797 q 345 705 351 736 q 340 651 340 674 q 383 602 340 602 m 730 61 q 765 71 751 61 q 789 103 779 81 q 807 158 800 124 q 825 240 815 193 q 832 274 827 255 q 836 311 836 293 q 827 348 836 333 q 793 364 818 364 q 754 350 769 364 q 731 318 740 337 q 717 277 722 298 q 708 240 712 256 q 694 163 700 195 q 688 109 688 131 q 697 72 688 84 q 730 61 707 61 m 1143 61 q 1177 71 1163 61 q 1202 103 1191 81 q 1220 158 1212 124 q 1237 240 1227 193 q 1244 274 1240 255 q 1248 311 1248 293 q 1239 348 1248 333 q 1205 364 1230 364 q 1167 350 1182 364 q 1143 318 1152 337 q 1129 277 1134 298 q 1120 240 1125 256 q 1107 163 1112 195 q 1101 109 1101 131 q 1110 72 1101 84 q 1143 61 1119 61 m 461 982 q 524 971 498 982 q 564 943 550 961 q 585 902 579 926 q 591 850 591 877 q 588 801 591 826 q 579 750 584 776 q 556 662 569 703 q 520 590 543 621 q 460 542 497 560 q 366 524 423 524 q 261 555 288 524 q 233 639 233 586 q 237 691 233 664 q 248 750 241 719 q 271 836 256 794 q 310 910 286 877 q 370 962 334 943 q 461 982 406 982 m 809 442 q 911 404 884 442 q 938 311 938 366 q 935 261 938 287 q 926 209 932 236 q 903 121 916 162 q 867 49 890 80 q 807 1 844 19 q 713 -17 770 -17 q 608 14 636 -17 q 580 98 580 45 q 584 151 580 123 q 595 209 588 179 q 620 295 605 254 q 659 370 634 337 q 719 422 683 403 q 809 442 755 442 m 1222 442 q 1324 404 1297 442 q 1351 311 1351 366 q 1348 261 1351 287 q 1339 209 1344 236 q 1316 121 1329 162 q 1279 49 1302 80 q 1220 1 1257 19 q 1126 -17 1183 -17 q 1020 14 1048 -17 q 993 98 993 45 q 997 151 993 123 q 1008 209 1001 179 q 1032 295 1018 254 q 1071 370 1047 337 q 1132 422 1095 403 q 1222 442 1168 442 m 882 1042 l 1001 1042 l 301 -63 l 183 -63 l 882 1042 "},"˛":{"x_min":-4.171875,"x_max":294.46875,"ha":386,"o":"m 263 3 l 262 -2 q 220 -22 241 -11 q 179 -47 198 -33 q 145 -79 159 -62 q 127 -113 131 -95 q 126 -126 126 -118 q 140 -155 126 -147 q 180 -164 155 -164 q 235 -156 204 -164 q 294 -141 266 -149 l 280 -210 q 209 -236 244 -226 q 122 -247 175 -247 q 31 -229 68 -247 q -4 -167 -4 -212 q -3 -155 -4 -160 q -1 -142 -2 -149 q 21 -89 4 -113 q 61 -46 38 -65 q 104 -15 83 -27 q 141 0 126 -4 l 263 3 "},"a":{"x_min":91.671875,"x_max":719.5,"ha":695,"o":"m 487 339 q 420 336 451 337 q 363 324 388 334 q 320 289 338 314 q 293 218 302 265 q 288 193 290 207 q 287 169 287 180 q 299 125 287 143 q 343 107 311 107 q 411 132 386 107 q 452 194 437 158 q 475 270 468 230 q 487 339 481 309 m 636 130 q 625 65 629 98 q 619 0 622 31 l 437 0 l 447 93 l 444 93 q 238 -14 362 -14 q 125 27 158 -14 q 91 134 91 69 q 100 209 91 169 q 153 337 116 290 q 240 410 190 385 q 350 442 290 435 q 473 449 411 449 l 511 449 l 522 502 q 529 551 529 533 q 515 590 529 576 q 463 605 501 605 q 422 595 438 605 q 395 572 405 586 q 378 538 384 557 q 368 498 372 518 l 176 498 q 217 603 190 561 q 284 669 244 645 q 372 704 323 694 q 477 715 420 715 q 596 703 550 715 q 670 672 643 692 q 708 624 697 652 q 719 563 719 596 q 708 480 719 527 l 636 130 "},"T":{"x_min":181.953125,"x_max":893.125,"ha":695,"o":"m 893 1003 l 858 836 l 625 836 l 451 0 l 241 0 l 415 836 l 181 836 l 216 1003 l 893 1003 "},"—":{"x_min":65.28125,"x_max":1477.890625,"ha":1389,"o":"m 88 429 l 1477 429 l 1454 319 l 65 319 l 88 429 "},"=":{"x_min":62.5,"x_max":776.453125,"ha":695,"o":"m 687 138 l 62 138 l 94 292 l 719 292 l 687 138 m 744 410 l 119 410 l 151 564 l 776 564 l 744 410 "},"N":{"x_min":88.890625,"x_max":1045.921875,"ha":926,"o":"m 88 0 l 297 1003 l 580 1003 l 702 308 l 705 308 l 850 1003 l 1045 1003 l 837 0 l 561 0 l 438 733 l 436 733 l 284 0 l 88 0 "},"˚":{"x_min":231.96875,"x_max":526.4375,"ha":386,"o":"m 297 900 q 295 883 295 894 q 313 836 295 855 q 362 818 331 818 q 425 841 395 818 q 461 900 454 865 q 462 916 462 905 q 443 963 462 944 q 395 982 425 982 q 332 957 361 982 q 297 900 304 933 m 523 900 q 500 844 516 870 q 459 797 483 817 q 407 766 436 777 q 350 755 379 755 q 264 788 297 755 q 231 870 231 821 q 232 885 231 877 q 234 900 233 893 q 257 955 240 929 q 298 1001 275 982 q 351 1033 322 1021 q 409 1045 380 1045 q 494 1011 462 1045 q 526 929 526 978 q 526 913 526 922 q 523 900 526 906 "},"⁄":{"x_min":-118.0625,"x_max":555.59375,"ha":232,"o":"m -31 -39 l -118 -39 l 465 1018 l 555 1018 l -31 -39 "},"2":{"x_min":16.671875,"x_max":741.71875,"ha":617,"o":"m 16 0 l 51 170 q 221 345 148 272 q 346 473 294 419 q 432 565 398 527 q 488 633 466 603 q 522 689 511 663 q 540 745 533 715 q 544 777 544 762 q 531 821 544 803 q 486 840 518 840 q 436 826 455 840 q 404 793 416 813 q 384 748 391 773 q 372 701 377 724 l 176 701 q 281 909 195 837 q 501 982 366 982 q 675 940 609 982 q 741 801 741 898 q 733 731 741 769 q 691 621 722 677 q 617 510 659 565 q 524 403 575 455 q 424 304 473 351 q 329 218 375 258 q 252 150 284 179 l 622 150 l 591 0 l 16 0 "},"j":{"x_min":-11.109375,"x_max":498.65625,"ha":386,"o":"m 498 1003 l 466 849 l 270 849 l 302 1003 l 498 1003 m 434 701 l 276 -63 q 197 -219 252 -173 q 52 -265 143 -265 q -11 -261 19 -265 l 13 -137 q 50 -128 30 -137 q 76 -82 69 -120 l 238 701 l 434 701 "},"Z":{"x_min":30.5625,"x_max":862.5625,"ha":695,"o":"m 258 1003 l 862 1003 l 823 820 l 263 154 l 695 154 l 663 0 l 30 0 l 68 183 l 627 849 l 226 849 l 258 1003 "},"u":{"x_min":102.78125,"x_max":761.171875,"ha":695,"o":"m 434 71 l 431 70 q 348 4 393 23 q 248 -14 304 -14 q 144 17 186 -14 q 102 106 102 48 q 102 122 102 113 q 105 138 102 130 l 222 701 l 418 701 l 318 215 q 311 163 311 183 q 324 122 311 137 q 369 107 337 107 q 435 137 416 107 q 465 215 454 168 l 565 701 l 761 701 l 644 138 q 623 0 630 70 l 420 0 l 434 71 "},"1":{"x_min":200.015625,"x_max":643.109375,"ha":617,"o":"m 237 819 q 352 885 295 849 q 456 970 408 921 l 643 970 l 441 0 l 231 0 l 386 746 q 295 687 341 714 q 200 637 248 661 l 237 819 "},"›":{"x_min":30.5625,"x_max":375.03125,"ha":308,"o":"m 375 371 l 191 104 l 30 104 l 208 371 l 145 645 l 305 645 l 375 371 "},"˜":{"x_min":112.515625,"x_max":638.9375,"ha":386,"o":"m 638 982 q 611 920 627 950 q 570 868 594 891 q 520 825 550 844 q 456 807 491 807 q 402 816 427 807 q 352 838 376 825 q 306 860 329 852 q 261 868 283 868 q 219 848 234 868 q 194 807 204 829 l 112 807 q 139 866 122 834 q 180 922 156 897 q 232 965 204 948 q 293 982 261 982 q 348 969 323 982 q 397 945 373 956 q 441 924 420 934 q 477 915 461 915 q 525 932 506 915 q 554 982 544 949 l 638 982 "},"k":{"x_min":73.609375,"x_max":797.28125,"ha":695,"o":"m 73 0 l 281 1003 l 477 1003 l 352 405 l 355 405 l 593 701 l 797 701 l 534 388 l 675 0 l 454 0 l 351 382 l 348 382 l 269 0 l 73 0 "},"ˇ":{"x_min":175.015625,"x_max":626.4375,"ha":386,"o":"m 497 1003 l 626 1003 l 434 804 l 280 804 l 175 1003 l 301 1003 l 373 879 l 497 1003 "},"€":{"x_min":70.84375,"x_max":762.5625,"ha":617,"o":"m 162 427 l 184 531 l 116 531 l 166 644 l 211 646 l 218 675 q 332 909 250 834 q 550 985 415 985 q 713 943 665 985 q 762 820 762 902 q 751 726 762 781 l 580 726 q 587 775 587 756 q 572 818 587 804 q 520 832 556 832 q 472 822 491 832 q 439 794 452 812 q 418 750 426 776 q 402 691 409 725 l 393 646 l 615 645 l 565 531 l 368 531 l 345 427 l 519 427 l 469 310 l 323 310 l 316 275 q 305 192 305 222 q 321 141 305 156 q 377 126 337 126 q 448 151 426 126 q 483 236 470 176 l 651 236 q 549 40 623 102 q 340 -21 475 -21 q 169 22 220 -21 q 118 157 118 65 q 131 273 118 209 l 140 310 l 70 309 l 120 427 l 162 427 "},"<":{"x_min":115.28125,"x_max":788.953125,"ha":695,"o":"m 662 121 l 630 -33 l 115 279 l 144 416 l 788 732 l 757 577 l 295 346 l 662 121 "},"t":{"x_min":104.171875,"x_max":519.484375,"ha":386,"o":"m 143 701 l 222 701 l 245 812 l 459 900 l 418 701 l 519 701 l 494 580 l 393 580 l 315 205 q 309 178 312 190 q 306 155 306 166 q 318 127 306 137 q 359 118 329 118 q 377 118 369 118 q 395 120 387 118 l 370 0 q 326 -4 350 -2 q 266 -7 302 -7 q 183 4 215 -7 q 134 35 151 16 q 110 75 116 54 q 104 116 104 97 q 105 133 104 126 q 108 148 106 141 l 197 580 l 118 580 l 143 701 "},"W":{"x_min":206.96875,"x_max":1444.5625,"ha":1235,"o":"m 206 1003 l 422 1003 l 405 299 l 408 298 l 713 1003 l 961 1003 l 963 299 l 966 298 l 1238 1003 l 1444 1003 l 1013 0 l 782 0 l 776 733 l 773 733 l 448 0 l 220 0 l 206 1003 "},"v":{"x_min":155.5625,"x_max":750.0625,"ha":617,"o":"m 155 701 l 354 701 l 344 175 l 347 174 l 558 701 l 750 701 l 412 0 l 197 0 l 155 701 "},">":{"x_min":50,"x_max":722.28125,"ha":695,"o":"m 540 346 l 176 577 l 208 732 l 722 416 l 693 279 l 50 -33 l 81 121 l 540 346 "},"s":{"x_min":73.609375,"x_max":672.28125,"ha":617,"o":"m 277 225 q 270 190 273 206 q 268 159 268 175 q 269 140 268 145 q 334 107 279 107 q 388 125 363 107 q 420 179 413 143 q 422 197 422 186 q 401 247 422 226 q 350 284 380 268 q 282 318 319 301 q 215 355 245 334 q 163 406 184 376 q 143 479 143 435 q 147 517 143 497 q 193 612 159 574 q 270 672 226 649 q 366 705 315 695 q 465 715 418 715 q 545 705 506 715 q 611 678 583 696 q 655 631 638 660 q 672 563 672 602 q 662 500 672 533 l 470 500 q 479 558 479 534 q 470 589 479 578 q 451 602 463 599 q 423 605 438 605 q 370 585 391 605 q 341 530 348 566 q 340 518 340 525 q 361 478 340 495 q 413 444 381 460 q 480 411 444 428 q 547 370 516 394 q 600 315 579 346 q 620 239 620 284 q 616 199 620 220 q 580 115 607 153 q 514 47 554 76 q 422 1 475 17 q 309 -14 370 -14 q 213 -7 256 -14 q 138 15 169 -1 q 90 61 106 31 q 73 136 73 90 q 86 225 73 172 l 277 225 "},"B":{"x_min":90.28125,"x_max":918.125,"ha":849,"o":"m 422 593 l 562 593 q 600 599 579 593 q 640 620 620 605 q 675 659 659 634 q 698 721 691 684 q 701 737 701 729 q 701 753 701 746 q 675 822 701 796 q 605 849 650 849 l 476 849 l 422 593 m 331 154 l 448 154 q 490 156 465 154 q 541 172 515 158 q 588 214 566 185 q 622 295 611 242 q 627 345 627 319 q 602 414 627 390 q 512 439 576 439 l 390 439 l 331 154 m 90 0 l 298 1003 l 670 1003 q 767 995 722 1003 q 845 967 812 987 q 898 912 879 947 q 918 823 918 877 q 908 743 918 786 q 834 597 888 655 q 691 522 780 538 l 690 519 q 804 466 772 508 q 836 359 836 425 q 833 314 836 337 q 825 265 830 291 q 758 116 805 169 q 656 37 711 63 q 547 5 601 11 q 461 0 494 0 l 90 0 "},"…":{"x_min":148.625,"x_max":1277.875,"ha":1389,"o":"m 815 183 l 777 0 l 611 0 l 648 183 l 815 183 m 1277 183 l 1240 0 l 1073 0 l 1111 183 l 1277 183 m 352 183 l 315 0 l 148 0 l 186 183 l 352 183 "},"?":{"x_min":202.796875,"x_max":734.78125,"ha":617,"o":"m 215 0 l 248 167 l 415 167 l 381 0 l 215 0 m 280 268 l 309 411 q 352 502 319 456 q 422 594 384 548 q 492 686 459 640 q 534 777 525 732 q 538 816 538 798 q 525 861 538 844 q 475 878 511 878 q 429 864 447 878 q 399 830 411 851 q 381 784 387 809 q 369 734 375 758 l 202 734 q 224 821 211 772 q 270 914 237 869 q 363 989 304 958 q 523 1020 423 1020 q 675 976 616 1020 q 734 846 734 932 q 729 793 734 819 q 668 648 711 707 q 579 544 626 589 q 494 459 533 498 q 444 368 455 419 l 423 268 l 280 268 "},"H":{"x_min":94.453125,"x_max":962.578125,"ha":849,"o":"m 669 601 l 752 1003 l 962 1003 l 754 0 l 544 0 l 636 447 l 395 447 l 304 0 l 94 0 l 302 1003 l 512 1003 l 429 601 l 669 601 "},"c":{"x_min":111.125,"x_max":733.390625,"ha":695,"o":"m 527 451 q 536 520 536 492 q 519 574 536 559 q 469 590 502 590 q 416 576 437 590 q 381 535 395 562 q 355 466 366 508 q 333 370 344 424 q 312 260 319 305 q 305 185 305 216 q 321 126 305 141 q 369 111 337 111 q 445 149 415 111 q 490 258 475 188 l 686 258 q 569 50 657 115 q 343 -14 481 -14 q 231 0 276 -14 q 160 39 187 13 q 122 101 133 65 q 111 184 111 138 q 117 267 111 223 q 134 359 123 310 q 172 496 150 431 q 234 609 194 560 q 336 686 273 658 q 495 715 398 715 q 671 670 609 715 q 733 530 733 626 q 730 492 733 512 q 723 451 727 473 l 527 451 "},"&":{"x_min":68.0625,"x_max":951.46875,"ha":926,"o":"m 506 671 q 548 697 527 682 q 586 728 569 711 q 617 765 604 744 q 636 808 630 785 q 637 829 637 815 q 619 877 637 860 q 566 895 601 895 q 502 873 533 895 q 463 815 470 851 q 461 801 461 808 q 461 788 461 795 q 475 726 461 754 q 506 671 488 697 m 420 449 q 336 378 376 420 q 286 287 297 337 q 281 265 283 276 q 280 244 280 255 q 312 162 280 191 q 405 133 344 133 q 493 148 450 133 q 572 199 537 163 l 420 449 m 669 79 q 525 1 598 20 q 370 -17 451 -17 q 145 40 222 -17 q 68 208 68 98 q 76 287 68 245 q 110 379 86 337 q 169 455 134 420 q 245 519 204 490 q 331 573 287 548 q 288 662 308 615 q 268 768 268 710 q 273 825 268 798 q 313 902 281 867 q 390 964 344 937 q 494 1005 436 990 q 616 1020 552 1020 q 688 1012 650 1020 q 759 986 726 1004 q 813 938 791 968 q 834 862 834 908 q 830 824 834 844 q 796 737 819 775 q 742 667 773 698 q 675 608 711 636 q 602 554 638 580 l 718 348 q 737 393 729 373 q 753 436 745 413 q 767 485 761 458 q 782 548 773 512 l 951 548 q 932 466 943 509 q 907 379 922 423 q 868 290 891 334 q 811 205 844 245 l 920 0 l 715 0 l 669 79 "},"˝":{"x_min":240.296875,"x_max":826.453125,"ha":618,"o":"m 826 1003 l 562 804 l 472 804 l 638 1003 l 826 1003 m 594 1003 l 330 804 l 240 804 l 406 1003 l 594 1003 "},"I":{"x_min":87.5,"x_max":505.59375,"ha":386,"o":"m 87 0 l 295 1003 l 505 1003 l 297 0 l 87 0 "},"•":{"x_min":140.28125,"x_max":651.4375,"ha":583,"o":"m 645 501 q 605 403 634 449 q 536 323 576 357 q 445 270 495 289 q 343 251 395 251 q 259 266 297 251 q 195 307 222 281 q 154 370 169 334 q 140 448 140 406 q 141 473 140 460 q 145 501 143 487 q 184 598 155 552 q 254 678 213 644 q 344 731 294 712 q 447 751 394 751 q 530 735 493 751 q 595 693 568 720 q 636 630 622 666 q 651 551 651 594 q 645 501 651 523 "},"ˉ":{"x_min":165.296875,"x_max":587.546875,"ha":386,"o":"m 186 940 l 587 940 l 566 840 l 165 840 l 186 940 "},"G":{"x_min":143.0625,"x_max":912.578125,"ha":849,"o":"m 688 694 q 700 776 700 742 q 679 843 700 817 q 601 870 659 870 q 519 839 552 870 q 463 757 486 808 q 424 638 440 705 q 393 498 408 571 q 364 348 373 411 q 355 244 355 286 q 382 151 355 173 q 466 129 409 129 q 520 134 493 129 q 575 148 548 140 l 620 371 l 506 371 l 538 525 l 862 525 l 757 16 q 697 6 734 12 q 620 -4 661 1 q 538 -13 579 -10 q 466 -17 497 -17 q 313 -3 375 -17 q 213 39 251 10 q 159 114 175 69 q 143 222 143 159 q 153 349 143 279 q 183 509 163 420 q 229 696 202 604 q 304 859 255 787 q 434 975 354 931 q 644 1020 515 1020 q 841 964 770 1020 q 912 800 912 908 q 897 694 912 756 l 688 694 "},"(":{"x_min":119.453125,"x_max":519.484375,"ha":386,"o":"m 519 1049 q 461 914 491 985 q 401 768 430 844 q 347 612 372 691 q 305 450 322 532 q 272 215 279 323 q 266 9 266 107 q 267 -40 266 -16 q 268 -90 268 -65 q 267 -129 268 -109 q 266 -168 266 -148 l 156 -168 q 131 32 144 -70 q 119 241 119 136 q 123 347 119 294 q 138 451 127 400 q 187 612 155 529 q 258 775 219 696 q 337 925 297 854 q 409 1049 377 996 l 519 1049 "},"`":{"x_min":208.34375,"x_max":479.203125,"ha":386,"o":"m 395 1003 l 479 804 l 388 804 l 208 1003 l 395 1003 "},"U":{"x_min":134.734375,"x_max":973.6875,"ha":849,"o":"m 973 1003 l 825 291 q 784 179 813 234 q 707 80 755 124 q 587 10 658 37 q 420 -17 516 -17 q 204 43 273 -17 q 134 209 134 103 q 143 291 134 247 l 291 1003 l 501 1003 l 355 305 q 350 270 351 285 q 348 241 348 255 q 375 158 348 183 q 448 133 402 133 q 559 177 518 133 q 618 305 601 221 l 763 1003 l 973 1003 "},"F":{"x_min":83.34375,"x_max":812.5625,"ha":617,"o":"m 83 0 l 291 1003 l 812 1003 l 780 849 l 469 849 l 415 592 l 712 592 l 680 438 l 383 438 l 293 0 l 83 0 "},"r":{"x_min":77.78125,"x_max":597.265625,"ha":463,"o":"m 408 701 l 390 610 l 393 610 q 485 693 433 671 q 597 715 537 715 l 559 540 q 547 540 552 540 q 534 541 541 541 q 445 525 479 541 q 393 485 412 509 q 365 434 373 462 q 352 381 356 406 l 273 0 l 77 0 l 222 701 l 408 701 "},":":{"x_min":70.84375,"x_max":381.96875,"ha":308,"o":"m 237 0 l 70 0 l 108 183 l 275 183 l 237 0 m 381 701 l 344 518 l 177 518 l 215 701 l 381 701 "},"x":{"x_min":6.9375,"x_max":804.234375,"ha":695,"o":"m 201 0 l 6 0 l 290 367 l 168 701 l 387 701 l 447 488 l 608 701 l 804 701 l 547 365 l 673 0 l 452 0 l 380 245 l 201 0 "},"*":{"x_min":187.515625,"x_max":744.5,"ha":617,"o":"m 330 490 l 227 562 l 383 719 l 187 694 l 216 829 l 401 805 l 320 956 l 450 1020 l 483 847 l 588 1020 l 693 956 l 548 805 l 744 829 l 715 694 l 530 719 l 622 562 l 488 490 l 448 680 l 330 490 "},"†":{"x_min":141.671875,"x_max":773.671875,"ha":617,"o":"m 388 789 l 433 1003 l 600 1003 l 555 789 l 773 789 l 744 654 l 526 654 l 391 0 l 225 0 l 359 654 l 141 654 l 170 789 l 388 789 "},"V":{"x_min":215.296875,"x_max":973.6875,"ha":772,"o":"m 215 1003 l 433 1003 l 436 274 l 438 273 l 766 1003 l 973 1003 l 500 0 l 254 0 l 215 1003 "},"μ":{"x_min":22.21875,"x_max":761.171875,"ha":695,"o":"m 434 71 l 431 70 q 357 7 397 27 q 269 -13 318 -12 l 218 -265 l 22 -265 l 222 701 l 418 701 l 318 215 q 311 163 311 183 q 324 122 311 137 q 369 107 337 107 q 435 137 416 107 q 465 215 454 168 l 565 701 l 761 701 l 616 0 l 420 0 l 434 71 "},"h":{"x_min":77.78125,"x_max":736.171875,"ha":695,"o":"m 420 0 l 520 483 q 525 510 523 497 q 526 534 526 523 q 514 578 526 562 q 469 594 502 594 q 402 562 422 594 q 373 483 383 530 l 273 0 l 77 0 l 286 1003 l 481 1003 l 404 630 l 406 630 q 490 695 444 676 q 590 715 533 715 q 694 683 652 715 q 736 594 736 652 q 736 578 736 587 q 733 562 736 570 l 616 0 l 420 0 "},"0":{"x_min":87.5,"x_max":730.609375,"ha":617,"o":"m 481 840 q 430 826 450 840 q 395 774 411 812 q 363 666 379 735 q 323 484 347 596 q 288 308 300 376 q 276 199 276 240 q 290 144 276 159 q 334 129 304 129 q 383 143 363 129 q 419 197 402 158 q 452 305 436 235 q 493 484 469 374 q 529 665 516 596 q 541 773 541 734 q 527 826 541 813 q 481 840 513 840 m 511 982 q 679 936 629 982 q 730 781 730 891 q 719 654 730 726 q 688 487 708 581 q 639 280 665 373 q 572 123 613 188 q 466 22 530 57 q 305 -13 402 -13 q 201 1 243 -13 q 134 43 159 16 q 98 110 109 70 q 87 201 87 150 q 99 331 87 259 q 127 487 111 403 q 186 720 156 626 q 259 873 216 815 q 361 956 301 931 q 511 982 420 982 "},".":{"x_min":70.84375,"x_max":275.015625,"ha":308,"o":"m 275 183 l 237 0 l 70 0 l 108 183 l 275 183 "},"”":{"x_min":218.078125,"x_max":757,"ha":617,"o":"m 570 1003 l 757 1003 l 598 729 l 465 729 l 570 1003 m 323 1003 l 509 1003 l 351 729 l 218 729 l 323 1003 "},"@":{"x_min":152.796875,"x_max":1176.484375,"ha":1104,"o":"m 722 671 q 662 652 691 671 q 609 604 633 634 q 566 532 584 573 q 537 443 547 490 q 533 420 534 432 q 531 397 531 408 q 545 343 531 365 q 591 321 559 321 q 648 332 619 321 q 704 371 677 343 q 752 445 730 398 q 790 564 775 491 q 794 596 794 580 q 775 650 794 630 q 722 671 757 671 m 898 479 q 884 443 893 465 q 868 400 876 420 q 854 362 861 379 q 848 343 848 345 q 847 340 848 341 q 847 337 847 339 q 852 325 847 330 q 870 321 858 321 q 925 341 895 321 q 982 396 955 362 q 1031 474 1009 430 q 1063 565 1052 518 q 1076 665 1076 621 q 1039 802 1076 752 q 952 880 1002 853 q 851 915 902 907 q 769 923 800 923 q 597 890 682 923 q 445 800 513 857 q 327 667 376 743 q 261 502 279 590 q 254 459 256 480 q 251 416 251 437 q 276 283 251 345 q 346 176 301 221 q 454 105 391 131 q 594 80 518 80 q 766 114 682 80 q 913 203 851 149 l 1040 203 q 941 111 995 152 q 825 42 886 70 q 700 -1 765 13 q 573 -17 636 -17 q 402 14 479 -17 q 269 100 325 45 q 183 231 213 155 q 152 395 152 306 q 154 448 152 422 q 163 502 156 475 q 246 705 186 611 q 391 869 306 798 q 577 979 475 939 q 788 1020 680 1020 q 976 987 901 1020 q 1095 903 1051 954 q 1158 792 1140 853 q 1176 675 1176 730 q 1174 637 1176 655 q 1169 602 1172 619 q 1112 450 1152 520 q 1018 325 1072 379 q 904 241 965 272 q 783 211 843 211 q 729 229 754 211 q 705 286 705 248 l 705 288 l 702 291 q 613 231 662 251 q 525 211 565 211 q 462 224 487 211 q 421 262 437 238 q 398 316 405 286 q 391 379 391 347 q 400 452 391 416 q 441 569 412 512 q 511 670 469 626 q 606 741 552 715 q 725 768 661 768 q 807 749 777 768 q 845 687 837 730 l 848 687 l 875 749 l 1004 749 l 898 479 "},"f":{"x_min":87.5,"x_max":587.546875,"ha":386,"o":"m 562 882 l 545 882 q 477 858 497 882 q 445 785 456 834 l 427 701 l 519 701 l 494 580 l 402 580 l 283 0 l 87 0 l 206 580 l 119 580 l 144 701 l 233 701 q 261 833 248 776 q 302 930 275 891 q 379 989 329 969 q 519 1010 429 1010 q 553 1009 537 1010 q 587 1007 569 1008 l 562 882 "},";":{"x_min":-11.109375,"x_max":381.96875,"ha":308,"o":"m 177 520 l 215 701 l 381 701 l 344 520 l 177 520 m 111 183 l 293 183 l 120 -135 l -11 -135 l 111 183 "},"“":{"x_min":218.078125,"x_max":757,"ha":617,"o":"m 404 729 l 218 729 l 376 1003 l 509 1003 l 404 729 m 651 729 l 465 729 l 623 1003 l 757 1003 l 651 729 "},"i":{"x_min":94.453125,"x_max":498.65625,"ha":386,"o":"m 498 1003 l 466 849 l 270 849 l 302 1003 l 498 1003 m 290 0 l 94 0 l 238 701 l 434 701 l 290 0 "},"6":{"x_min":83.34375,"x_max":743.109375,"ha":617,"o":"m 329 129 q 372 137 354 129 q 406 166 391 145 q 434 223 422 187 q 458 316 445 259 q 468 374 465 348 q 472 419 472 399 q 456 474 472 456 q 405 493 441 493 q 325 442 348 493 q 283 299 302 391 q 275 256 280 280 q 270 208 270 231 q 282 152 270 176 q 329 129 294 129 m 531 760 q 537 796 537 778 q 533 822 537 811 q 515 842 526 835 q 483 849 504 849 q 431 838 451 849 q 395 796 411 828 q 366 708 380 765 q 333 559 352 651 q 376 589 356 577 q 414 610 395 602 q 454 622 433 619 q 502 626 475 626 q 583 611 551 626 q 634 572 615 596 q 661 514 654 548 q 669 444 669 481 q 665 381 669 413 q 654 317 661 349 q 611 181 638 242 q 540 77 583 120 q 436 10 497 34 q 294 -13 376 -13 q 191 3 231 -13 q 127 48 151 20 q 93 116 102 77 q 83 201 83 155 q 90 299 83 248 q 109 402 98 351 q 170 656 140 547 q 244 837 200 765 q 355 945 288 909 q 526 982 422 982 q 613 972 573 982 q 682 944 652 963 q 727 894 711 925 q 743 821 743 864 q 741 791 743 807 q 736 760 738 776 l 531 760 "},"A":{"x_min":11.109375,"x_max":837.5625,"ha":849,"o":"m 583 809 l 580 809 l 394 376 l 594 376 l 583 809 m 11 0 l 497 1003 l 773 1003 l 837 0 l 616 0 l 607 222 l 320 222 l 218 0 l 11 0 "},"‘":{"x_min":187.515625,"x_max":479.203125,"ha":308,"o":"m 373 729 l 187 729 l 345 1003 l 479 1003 l 373 729 "},"n":{"x_min":77.78125,"x_max":736.171875,"ha":695,"o":"m 404 630 l 406 630 q 490 696 444 676 q 590 715 533 715 q 694 683 652 715 q 736 594 736 652 q 736 578 736 587 q 733 562 736 570 l 616 0 l 420 0 l 520 483 q 525 510 523 497 q 526 535 526 524 q 514 579 526 563 q 469 595 502 595 q 402 563 422 595 q 373 483 383 531 l 273 0 l 77 0 l 222 701 l 418 701 l 404 630 "},"O":{"x_min":141.671875,"x_max":912.578125,"ha":849,"o":"m 450 133 q 525 154 494 133 q 579 220 555 176 q 621 335 602 265 q 661 501 640 405 q 688 646 677 584 q 698 753 698 708 q 677 841 698 812 q 604 870 655 870 q 529 848 559 870 q 475 782 498 826 q 432 667 451 737 q 394 501 413 597 q 366 355 376 418 q 356 248 356 292 q 377 160 356 188 q 450 133 398 133 m 419 -17 q 284 1 337 -17 q 198 51 230 19 q 154 128 166 83 q 141 226 141 173 q 154 359 141 288 q 181 501 166 429 q 227 694 202 601 q 298 860 251 787 q 425 976 345 932 q 634 1020 505 1020 q 770 1001 716 1020 q 856 951 825 983 q 900 874 887 918 q 912 776 912 829 q 900 644 912 714 q 873 501 888 575 q 827 309 852 402 q 755 143 802 216 q 628 26 708 70 q 419 -17 548 -17 "},"3":{"x_min":58.34375,"x_max":730.609375,"ha":617,"o":"m 177 727 q 220 851 193 802 q 287 930 247 901 q 380 970 326 958 q 508 982 434 982 q 675 942 620 982 q 730 811 730 902 q 728 769 730 791 q 720 723 726 747 q 700 653 713 689 q 666 587 687 618 q 614 535 644 557 q 544 508 584 514 l 543 505 q 630 455 607 493 q 654 366 654 418 q 650 319 654 342 q 641 269 647 295 q 518 52 609 118 q 280 -13 427 -13 q 111 24 165 -13 q 58 154 58 62 q 70 263 58 200 l 266 263 q 259 224 262 243 q 255 189 255 205 q 268 145 255 162 q 320 129 281 129 q 376 142 354 129 q 412 178 398 156 q 434 227 426 199 q 447 279 441 254 q 455 347 455 320 q 446 391 455 375 q 418 415 437 407 q 368 425 398 423 q 297 428 338 428 l 329 582 q 349 581 340 582 q 368 581 358 581 q 429 586 404 581 q 473 608 455 592 q 503 652 491 623 q 525 725 515 680 q 531 776 531 752 q 520 821 531 802 q 473 840 508 840 q 429 830 447 840 q 401 804 412 820 q 384 768 390 788 q 373 727 377 748 l 177 727 "},"]":{"x_min":-4.171875,"x_max":541.703125,"ha":386,"o":"m 288 -168 l -4 -168 l 19 -47 l 159 -47 l 362 928 l 222 928 l 247 1049 l 541 1049 l 288 -168 "},"m":{"x_min":62.5,"x_max":1059.8125,"ha":1003,"o":"m 388 630 l 391 630 q 475 696 430 677 q 575 715 519 715 q 662 691 627 715 q 712 625 697 667 q 804 693 757 671 q 913 715 852 715 q 1018 683 976 715 q 1059 594 1059 652 q 1059 578 1059 587 q 1057 562 1059 570 l 940 0 l 744 0 l 844 482 q 848 510 847 496 q 850 534 850 523 q 838 578 850 562 q 793 594 826 594 q 726 562 745 594 q 697 482 707 530 l 597 0 l 405 0 l 505 482 q 509 510 508 496 q 511 534 511 523 q 499 578 511 562 q 454 594 487 594 q 387 562 406 594 q 358 482 368 530 l 258 0 l 62 0 l 206 701 l 402 701 l 388 630 "},"9":{"x_min":76.390625,"x_max":730.609375,"ha":617,"o":"m 362 676 q 354 633 358 656 q 350 585 350 609 q 362 530 350 553 q 411 508 375 508 q 463 526 441 508 q 498 572 484 545 q 520 628 512 598 q 533 680 529 658 q 541 723 537 700 q 545 769 545 746 q 532 825 545 801 q 483 849 519 849 q 430 830 451 849 q 395 784 409 811 q 374 728 381 758 q 362 676 366 698 m 281 227 q 277 205 279 215 q 276 185 276 195 q 280 159 276 169 q 299 137 287 145 q 333 129 311 129 q 391 144 369 129 q 427 197 412 160 q 453 292 441 233 q 483 438 465 352 q 309 375 406 375 q 235 389 265 375 q 186 428 205 404 q 158 485 166 452 q 150 555 150 518 q 158 637 150 595 q 197 771 172 708 q 264 881 223 834 q 364 954 305 927 q 505 982 423 982 q 614 966 570 982 q 684 923 658 951 q 720 856 709 895 q 730 769 730 816 q 717 633 730 706 q 687 480 704 560 q 661 360 675 420 q 627 246 647 301 q 581 144 608 191 q 514 62 554 96 q 422 7 475 27 q 298 -13 369 -13 q 135 20 194 -13 q 76 143 76 54 q 79 183 76 163 q 87 227 81 203 l 281 227 "},"l":{"x_min":94.453125,"x_max":498.65625,"ha":386,"o":"m 498 1003 l 290 0 l 94 0 l 302 1003 l 498 1003 "},"8":{"x_min":69.453125,"x_max":738.953125,"ha":617,"o":"m 481 840 q 438 826 456 840 q 409 794 420 813 q 390 753 397 774 q 379 713 383 731 q 374 684 376 699 q 372 653 372 669 q 384 604 372 626 q 429 583 395 583 q 473 596 455 583 q 503 629 491 609 q 521 671 515 649 q 531 713 527 694 q 536 739 534 726 q 538 769 538 753 q 527 818 538 796 q 481 840 515 840 m 397 433 q 343 414 363 433 q 309 368 322 395 q 288 312 295 341 q 277 260 281 283 q 270 202 270 230 q 284 151 270 173 q 334 129 297 129 q 381 141 362 129 q 414 174 401 153 q 435 217 427 194 q 447 260 443 240 q 454 305 450 280 q 459 353 459 330 q 447 409 459 385 q 397 433 434 433 m 305 -13 q 129 30 190 -13 q 69 167 69 73 q 71 205 69 185 q 79 248 73 225 q 102 332 88 292 q 136 407 115 373 q 192 467 158 441 q 276 510 226 494 l 276 513 q 197 562 219 528 q 176 645 176 596 q 179 683 176 663 q 186 724 181 704 q 295 920 213 858 q 511 982 376 982 q 681 938 623 982 q 738 802 738 894 q 730 724 738 767 q 709 651 722 685 q 676 590 697 617 q 625 543 655 563 q 551 513 594 523 l 551 510 q 631 448 609 487 q 654 356 654 409 q 650 304 654 331 q 640 248 647 277 q 527 48 611 110 q 305 -13 444 -13 "},"p":{"x_min":13.890625,"x_max":729.21875,"ha":695,"o":"m 375 107 q 420 121 401 107 q 455 165 440 136 q 483 242 470 195 q 509 356 495 290 q 527 446 520 405 q 534 520 534 488 q 521 575 534 556 q 475 594 508 594 q 425 576 444 594 q 391 528 405 559 q 368 453 377 496 q 347 356 358 409 q 329 255 336 298 q 322 181 322 212 q 375 107 322 107 m 408 701 l 393 623 l 395 623 q 478 694 433 674 q 580 715 523 715 q 652 701 623 715 q 698 666 682 688 q 722 613 715 644 q 729 549 729 583 q 718 445 729 499 q 698 345 708 391 q 672 229 687 292 q 628 112 657 166 q 552 22 600 58 q 431 -14 505 -14 q 345 4 379 -14 q 288 67 311 22 l 286 66 l 209 -301 l 13 -301 l 222 701 l 408 701 "},"4":{"x_min":76.390625,"x_max":723.671875,"ha":617,"o":"m 423 371 l 531 833 l 529 833 l 256 371 l 423 371 m 116 416 q 263 648 204 554 q 361 803 322 742 q 420 899 400 865 q 452 947 441 932 q 463 966 462 963 q 466 970 465 970 l 723 970 l 598 371 l 675 371 l 644 221 l 568 221 l 522 0 l 330 0 l 376 221 l 76 221 l 116 416 "},"‡":{"x_min":48.609375,"x_max":775.0625,"ha":617,"o":"m 266 205 l 48 205 l 76 340 l 294 340 l 362 662 l 144 662 l 172 797 l 390 797 l 433 1003 l 600 1003 l 556 797 l 775 797 l 747 662 l 529 662 l 461 340 l 679 340 l 651 205 l 433 205 l 391 0 l 225 0 l 266 205 "},"R":{"x_min":83.34375,"x_max":868.125,"ha":772,"o":"m 411 569 l 504 569 q 558 582 534 569 q 598 618 581 596 q 625 666 615 640 q 641 716 636 692 q 645 743 644 730 q 647 766 647 755 q 625 830 647 811 q 562 849 602 849 l 469 849 l 411 569 m 293 0 l 83 0 l 291 1003 l 679 1003 q 818 956 768 1003 q 868 820 868 909 q 865 781 868 801 q 858 740 862 762 q 783 577 838 644 q 622 494 727 510 l 620 491 q 660 484 634 488 q 709 466 686 480 q 751 426 733 452 q 769 352 769 399 q 767 325 769 340 q 762 294 765 310 q 751 238 758 273 q 738 163 744 202 q 727 86 732 123 q 722 23 722 48 q 725 0 722 11 l 519 0 q 513 48 513 20 q 522 121 513 84 q 537 194 530 158 q 550 261 544 230 q 556 320 556 292 q 531 389 556 363 q 433 415 506 415 l 379 415 l 293 0 "},"o":{"x_min":111.125,"x_max":727.84375,"ha":695,"o":"m 369 111 q 416 121 395 111 q 452 160 436 131 q 482 239 468 188 q 513 370 497 290 q 529 451 523 416 q 536 515 536 487 q 520 571 536 552 q 469 590 505 590 q 416 576 437 590 q 381 535 395 562 q 355 466 366 508 q 333 370 344 424 q 312 260 319 305 q 305 185 305 216 q 321 126 305 141 q 369 111 337 111 m 343 -14 q 231 0 276 -14 q 160 39 187 13 q 122 101 133 65 q 111 184 111 138 q 117 267 111 223 q 134 359 123 310 q 172 496 150 431 q 234 609 194 560 q 336 686 273 658 q 495 715 398 715 q 609 700 563 715 q 680 660 654 685 q 717 598 707 634 q 727 519 727 562 q 722 442 727 483 q 707 359 716 402 q 666 208 690 277 q 602 90 643 140 q 500 13 562 41 q 343 -14 437 -14 "},"5":{"x_min":77.78125,"x_max":759.78125,"ha":617,"o":"m 362 577 l 365 574 q 434 624 394 609 q 518 640 475 640 q 641 597 605 640 q 677 471 677 555 q 659 320 677 405 q 607 158 638 223 q 531 55 576 93 q 427 2 486 17 q 294 -13 369 -13 q 135 24 193 -13 q 77 149 77 61 q 87 227 77 186 l 283 227 q 279 205 280 215 q 277 184 277 195 q 281 157 277 167 q 336 129 293 129 q 384 140 365 129 q 418 174 404 151 q 443 234 433 198 q 463 320 452 270 q 474 374 468 342 q 480 434 480 405 q 468 490 480 466 q 420 515 456 515 q 383 504 400 515 q 354 477 366 494 q 335 442 343 460 q 323 406 327 423 l 134 406 l 252 970 l 759 970 l 727 820 l 412 820 l 362 577 "}}}
